<svg width="14" height="10" viewBox="0 0 14 10" fill="none" xmlns="http://www.w3.org/2000/svg">
<path d="M4.98771 8.29289L4.63416 7.93934L1.34476 4.64995C1.25075 4.56044 1.12556 4.51096 0.995655 4.51209C0.864557 4.51323 0.739151 4.56582 0.646447 4.65852C0.553743 4.75122 0.501158 4.87663 0.500019 5.00773C0.49889 5.13763 0.548361 5.26282 0.637872 5.35684L4.63421 9.35318C4.63423 9.3532 4.63425 9.35322 4.63427 9.35323C4.72802 9.44693 4.85515 9.49957 4.98771 9.49957C5.12027 9.49957 5.2474 9.44693 5.34116 9.35323L4.98771 8.29289ZM4.98771 8.29289L5.34127 7.93934L12.6342 0.646393C12.6342 0.646376 12.6342 0.646358 12.6343 0.64634C12.728 0.552638 12.8552 0.5 12.9877 0.5C13.1203 0.5 13.2474 0.552658 13.3412 0.646393C13.4349 0.740146 13.4875 0.867253 13.4875 0.999786C13.4875 1.13234 13.4349 1.25947 13.3412 1.35323C13.3411 1.35325 13.3411 1.35327 13.3411 1.35329L5.34121 9.35318L4.98771 8.29289Z" fill="#10B981" stroke="#10B981"/>
</svg>
